<svg width="155" height="45" viewBox="0 0 155 45" fill="none" xmlns="http://www.w3.org/2000/svg">
<path d="M32.7201 17.3C30.8001 18.83 28.8101 21.25 28.8101 23.96C28.8101 28.05 31.7401 29.96 34.0901 31.34L34.4901 31.58C35.1101 31.94 35.7101 32.28 36.2601 32.66L36.4001 32.75C38.0301 33.95 38.4001 37.5 34.8701 40.53C36.5461 39.3698 38.0566 37.9871 39.3601 36.42V36.42C40.2697 35.3239 41.0702 34.1416 41.7501 32.89C42.3312 31.7925 42.4832 30.518 42.1763 29.3146C41.8695 28.1113 41.1258 27.0652 40.0901 26.38C39.4001 25.93 38.7401 25.54 38.1501 25.2L37.0001 24.52C36.7266 24.3529 36.4659 24.1657 36.2201 23.96C32.5701 21.85 32.2201 18.69 33.4101 16.6C33.214 16.8645 32.9818 17.1002 32.7201 17.3Z" fill="url(#paint0_linear_298_3490)"/>
<path d="M31.22 1.87992C30.3453 1.49018 29.4469 1.15618 28.53 0.879917C28.1516 0.764976 27.753 0.732675 27.3611 0.785202C26.9692 0.837728 26.5931 0.973856 26.2584 1.18437C25.9237 1.39488 25.6381 1.67486 25.421 2.00535C25.2038 2.33583 25.0603 2.70912 25 3.09992C24.7838 4.58526 24.3596 6.03278 23.74 7.39992C23.5574 7.79574 23.3503 8.17981 23.12 8.54992C21.9414 10.3231 20.4136 11.8372 18.63 12.9999L18.36 13.1999C15.24 15.7399 14.87 19.7999 21.3 24.3199C20.36 23.5099 20.18 23.0599 20.18 22.3199C20.18 21.1999 20.55 20.7599 23 18.9499C25.45 17.1399 28.63 14.7899 30.68 9.99992C31.7487 7.42644 31.9385 4.57225 31.22 1.87992V1.87992Z" fill="url(#paint1_linear_298_3490)"/>
<path d="M33.1399 12C33.7055 12.6115 34.0416 13.4002 34.0908 14.2317C34.14 15.0632 33.8994 15.886 33.4099 16.56V16.56C32.1899 18.65 32.5699 21.81 36.2199 23.92L36.8299 23.57C38.0817 22.8789 39.1707 21.9274 40.0235 20.7797C40.8762 19.632 41.473 18.3147 41.7734 16.9168C42.0738 15.5189 42.071 14.0727 41.7651 12.676C41.4591 11.2793 40.8572 9.96436 39.9999 8.82L39.9399 8.74C37.9486 6.13852 35.4084 4.00798 32.4999 2.5C32.0799 2.28 31.6599 2.08 31.2199 1.88C31.9227 4.55042 31.733 7.37737 30.6799 9.93001C31.5717 10.5299 32.3965 11.2239 33.1399 12V12Z" fill="url(#paint2_linear_298_3490)"/>
<path d="M33.1399 12C33.7055 12.6115 34.0416 13.4002 34.0908 14.2317C34.14 15.0632 33.8994 15.886 33.4099 16.56V16.56C32.1899 18.65 32.5699 21.81 36.2199 23.92L36.8299 23.57C38.0817 22.8789 39.1707 21.9274 40.0235 20.7797C40.8762 19.632 41.473 18.3147 41.7734 16.9168C42.0738 15.5189 42.071 14.0727 41.7651 12.676C41.4591 11.2793 40.8572 9.96436 39.9999 8.82L39.9399 8.74C37.9486 6.13852 35.4084 4.00798 32.4999 2.5C32.0799 2.28 31.6599 2.08 31.2199 1.88C31.9227 4.55042 31.733 7.37737 30.6799 9.93001C31.5717 10.5299 32.3965 11.2239 33.1399 12V12Z" fill="url(#paint3_linear_298_3490)"/>
<path d="M23.7599 37.0999C20.2583 37.4519 16.7449 36.5555 13.8398 34.5691C10.9348 32.5826 8.8248 29.6338 7.88233 26.2431C6.93986 22.8523 7.22547 19.2376 8.68877 16.037C10.1521 12.8363 12.699 10.2555 15.8799 8.74995V8.74995C17.6209 7.97507 19.1306 6.76124 20.2613 5.22736C21.392 3.69348 22.1048 1.89218 22.3299 -5.32897e-05V-5.32897e-05C16.4817 -0.0145849 10.8628 2.27401 6.68906 6.3706C2.51529 10.4672 0.122208 16.0423 0.0275749 21.8898C-0.0670578 27.7374 2.14437 33.387 6.1834 37.6165C10.2224 41.846 15.7643 44.3152 21.6099 44.4899C25.2799 44.2899 25.6299 40.7299 23.7599 37.0999Z" fill="url(#paint4_linear_298_3490)"/>
<path d="M25.3 44.2899C25.9729 44.1985 26.6405 44.0716 27.3 43.9099C28.0537 43.7337 28.7634 43.405 29.3853 42.9441C30.0071 42.4832 30.528 41.8998 30.9159 41.23C31.3037 40.5601 31.5503 39.818 31.6405 39.0492C31.7306 38.2804 31.6624 37.5013 31.44 36.7599C31.2117 36.0165 30.9447 35.2855 30.64 34.5699C28.59 29.7799 25.39 27.4099 22.96 25.6199C22.22 25.0699 21.67 24.6199 21.26 24.2899C14.83 19.7699 15.2 15.7099 18.32 13.1699C15.79 15.0399 12.79 17.4199 12.79 22.2499C12.79 27.2499 16.01 29.6199 18.59 31.5299C20.3973 32.692 21.9461 34.2136 23.14 35.9999C23.3704 36.37 23.5774 36.7541 23.76 37.1499C25.63 40.7799 25.28 44.3399 21.61 44.5399H22.25C23.2713 44.5281 24.2905 44.4446 25.3 44.2899V44.2899Z" fill="#E30D13"/>
<path d="M40 8.81989L39.94 8.73989C37.9487 6.13841 35.4084 4.00786 32.5 2.49989C32.08 2.27989 31.66 2.07989 31.22 1.87989C30.3453 1.49015 29.4469 1.15615 28.53 0.879888C28.2798 0.805897 28.0209 0.765543 27.76 0.759888C27 0.889888 26.25 1.88989 28.37 2.99989C29.5993 3.62731 30.5314 4.71439 30.964 6.02503C31.3965 7.33568 31.2944 8.76403 30.68 9.99989C31.5684 10.5778 32.393 11.2482 33.14 11.9999C33.7056 12.6114 34.0417 13.4001 34.0909 14.2316C34.1401 15.0631 33.8995 15.8859 33.41 16.5599V16.5599C32.19 18.6499 32.57 21.8099 36.22 23.9199L36.83 23.5699C38.0818 22.8788 39.1708 21.9273 40.0235 20.7796C40.8763 19.6319 41.473 18.3146 41.7735 16.9167C42.0739 15.5187 42.0711 14.0726 41.7651 12.6759C41.4592 11.2791 40.8573 9.96424 40 8.81989V8.81989Z" fill="url(#paint5_linear_298_3490)"/>
<path d="M28.37 2.99989C26.25 1.88989 27 0.889889 27.76 0.779889C27.0982 0.771433 26.4554 1.00106 25.9488 1.42692C25.4422 1.85278 25.1055 2.44651 25 3.09989C24.7838 4.58523 24.3596 6.03275 23.74 7.39989C23.5574 7.79571 23.3503 8.17978 23.12 8.54989C21.9414 10.323 20.4136 11.8372 18.63 12.9999L18.36 13.1999C15.24 15.7399 14.87 19.7999 21.3 24.3199C20.36 23.5099 20.18 23.0599 20.18 22.3199C20.18 21.1999 20.55 20.7599 23 18.9499C25.45 17.1399 28.63 14.7899 30.68 9.99989C31.2944 8.76404 31.3965 7.33568 30.9639 6.02504C30.5314 4.71439 29.5993 3.62731 28.37 2.99989V2.99989Z" fill="url(#paint6_linear_298_3490)"/>
<path d="M58.42 28.8999C57.6078 28.9011 56.7974 28.8241 56 28.6699C55.321 28.5302 54.6527 28.3431 54 28.1099C53.5022 27.9391 53.0203 27.7249 52.56 27.4699C52.263 27.316 51.9788 27.1388 51.71 26.9399L53.31 23.6299C53.5447 23.835 53.7918 24.0253 54.05 24.1999C54.4032 24.441 54.7781 24.6485 55.17 24.8199C55.6375 25.0354 56.1271 25.1997 56.63 25.3099C57.2235 25.4467 57.8309 25.5138 58.44 25.5099C59.239 25.5544 60.0302 25.3328 60.69 24.8799C60.9503 24.6898 61.1608 24.4395 61.3036 24.1505C61.4464 23.8615 61.5172 23.5422 61.51 23.2199C61.53 22.8573 61.4686 22.4948 61.3302 22.1591C61.1917 21.8234 60.9798 21.5229 60.71 21.2799C59.6268 20.5575 58.4398 20.0045 57.19 19.6399C55.9134 19.3408 54.7119 18.7826 53.66 17.9999C53.2797 17.6863 52.9434 17.3231 52.66 16.9199C52.4276 16.5834 52.2426 16.2167 52.11 15.8299C51.9916 15.4869 51.9144 15.1311 51.88 14.7699C51.8551 14.437 51.8551 14.1028 51.88 13.7699C51.8429 12.6487 52.1652 11.5449 52.8 10.6199C53.3987 9.73478 54.2801 9.07903 55.3 8.75991C56.3379 8.41157 57.4251 8.23262 58.52 8.22991C59.2701 8.22296 60.0185 8.3035 60.75 8.46991C61.3817 8.61268 61.998 8.81699 62.59 9.07991C63.0885 9.30901 63.5611 9.5906 64 9.91991C64.3896 10.2197 64.7511 10.5544 65.08 10.9199L63.08 13.5799C62.7915 13.2588 62.454 12.9854 62.08 12.7699C61.6464 12.5057 61.1915 12.2782 60.72 12.0899C60.2765 11.9024 59.8183 11.7519 59.35 11.6399C59.0236 11.5548 58.6872 11.5144 58.35 11.5199C57.5723 11.4402 56.7933 11.6581 56.17 12.1299C55.9695 12.3184 55.81 12.5463 55.7016 12.7992C55.5932 13.0521 55.5382 13.3247 55.54 13.5999C55.5198 13.9023 55.575 14.205 55.7006 14.4807C55.8263 14.7565 56.0185 14.9968 56.26 15.1799C56.6261 15.4198 57.0107 15.6305 57.41 15.8099C58.0614 16.1045 58.7292 16.3616 59.41 16.5799C60.8578 17.0169 62.2134 17.7151 63.41 18.6399C64.163 19.1937 64.7172 19.9758 64.99 20.8699C65.0601 21.2436 65.1102 21.6208 65.14 21.9999C65.14 22.3699 65.22 22.7199 65.24 23.0599C65.2599 24.3436 64.8201 25.5921 64 26.5799C63.2755 27.4724 62.3002 28.1272 61.2 28.4599C60.2968 28.7287 59.362 28.8766 58.42 28.8999V28.8999Z" fill="#5B1D1D"/>
<path d="M71.6399 28.81C70.9546 28.8591 70.2678 28.7389 69.6399 28.46C69.1752 28.2255 68.7739 27.8825 68.4699 27.46C68.2314 27.0825 68.0716 26.6607 67.9999 26.22C67.8992 25.8212 67.8488 25.4113 67.8499 25V8.62H71.5199V24.29C71.4966 24.4769 71.5121 24.6666 71.5654 24.8473C71.6188 25.028 71.7088 25.1957 71.8299 25.34C72.0757 25.5449 72.3904 25.6486 72.7099 25.63C73.1208 25.6225 73.5259 25.5306 73.8999 25.36L74.5499 28.16C74.2155 28.3446 73.8546 28.4762 73.4799 28.55C72.8817 28.7224 72.2624 28.8099 71.6399 28.81V28.81Z" fill="#5B1D1D"/>
<path d="M78.3198 12.79C78.0076 12.8138 77.6939 12.7679 77.4016 12.6555C77.1093 12.543 76.8456 12.367 76.6298 12.14C76.2798 11.7336 76.0849 11.2163 76.0798 10.68C76.085 10.1526 76.2803 9.64487 76.6298 9.24997C76.8434 9.01945 77.1064 8.84031 77.3991 8.726C77.6918 8.61169 78.0066 8.56518 78.3198 8.58997C78.632 8.5606 78.9467 8.60503 79.2385 8.71967C79.5304 8.83432 79.7911 9.01598 79.9998 9.24997C80.3534 9.64243 80.5493 10.1518 80.5498 10.68C80.5492 11.2172 80.3538 11.7359 79.9998 12.14C79.7873 12.3685 79.5257 12.5457 79.2346 12.6583C78.9436 12.7709 78.6308 12.816 78.3198 12.79ZM76.4698 28.49V14.13H80.1298V28.49H76.4698Z" fill="#5B1D1D"/>
<path d="M83.48 28.49V14.13H86.85L87 15.2C87.4846 14.7843 88.0312 14.4469 88.62 14.2C89.2497 13.921 89.9312 13.7779 90.62 13.78C91.2991 13.7839 91.9736 13.8918 92.62 14.1C93.3145 14.3195 93.9528 14.6881 94.49 15.18C95.1705 14.7673 95.895 14.4319 96.65 14.18C97.4613 13.904 98.313 13.7655 99.17 13.77C100.513 13.6635 101.848 14.0472 102.93 14.85C103.746 15.4788 104.316 16.3742 104.54 17.38C104.73 18.2001 104.83 19.0383 104.84 19.88V28.49H101.18V20.06C101.217 19.2549 101.03 18.4553 100.64 17.75C100.415 17.4387 100.111 17.1931 99.7595 17.0384C99.4079 16.8838 99.0215 16.8256 98.64 16.87C98.1041 16.884 97.578 17.0173 97.1 17.26C96.637 17.4689 96.1978 17.7271 95.79 18.03C95.8979 18.6209 95.9581 19.2195 95.97 19.82V28.49H92.27V20.06C92.3286 19.2167 92.1186 18.3765 91.67 17.66C91.4756 17.4037 91.2224 17.1981 90.9317 17.0606C90.6409 16.9231 90.3213 16.8577 90 16.87C89.4417 16.8701 88.8945 17.0259 88.42 17.32C87.9628 17.5841 87.5397 17.9032 87.16 18.27V28.49H83.48Z" fill="#5B1D1D"/>
<path d="M108.07 28.4899V14.1299H111.4L111.64 15.6499C111.84 15.4079 112.065 15.1868 112.31 14.9899C112.586 14.7715 112.88 14.5774 113.19 14.4099C113.512 14.2477 113.846 14.1106 114.19 13.9999C114.512 13.8919 114.85 13.8345 115.19 13.8299C115.735 13.795 116.282 13.8663 116.8 14.0399L116.27 17.2599C115.86 17.1639 115.44 17.1236 115.02 17.1399C114.352 17.13 113.697 17.3217 113.14 17.6899C112.631 18.019 112.161 18.4048 111.74 18.8399V28.4899H108.07Z" fill="#5B1D1D"/>
<path d="M122.11 28.81C121.506 28.8144 120.906 28.7094 120.34 28.5C119.785 28.3013 119.273 27.9993 118.83 27.61C118.363 27.1867 117.992 26.6693 117.74 26.0918C117.488 25.5143 117.362 24.8899 117.37 24.26C117.315 23.5607 117.479 22.8617 117.84 22.26C118.173 21.6978 118.619 21.2108 119.15 20.83C119.664 20.4451 120.234 20.1415 120.84 19.93C121.379 19.7432 121.935 19.6092 122.5 19.53L123.5 19.41L125.5 19.17V19C125.533 18.689 125.495 18.3746 125.389 18.0803C125.283 17.786 125.113 17.5193 124.89 17.3C124.409 16.9341 123.813 16.7531 123.21 16.79C122.501 16.7923 121.802 16.9493 121.16 17.25C120.622 17.4809 120.121 17.7873 119.67 18.16L118.45 15.57C119.128 15.0107 119.92 14.6048 120.77 14.38C121.299 14.1927 121.84 14.0423 122.39 13.93C122.867 13.8326 123.354 13.7923 123.84 13.81C124.657 13.7749 125.472 13.9147 126.23 14.22C126.884 14.4751 127.466 14.8832 127.93 15.41C128.385 15.9222 128.726 16.5256 128.93 17.18C129.151 17.8607 129.252 18.5746 129.23 19.29V28.53H125.83L125.68 27.44C125.257 27.8856 124.737 28.2278 124.16 28.44C123.508 28.6977 122.811 28.8235 122.11 28.81V28.81ZM122.97 25.72C123.449 25.7197 123.923 25.6174 124.36 25.42C124.78 25.2371 125.166 24.9834 125.5 24.67V21.76L124.03 21.92L123.09 22.05C122.463 22.1286 121.881 22.4177 121.44 22.87C121.144 23.2272 120.981 23.6761 120.98 24.14C120.972 24.3588 121.015 24.5764 121.105 24.7759C121.195 24.9754 121.33 25.1514 121.5 25.29C121.935 25.6037 122.465 25.7558 123 25.72H122.97Z" fill="#5B1D1D"/>
<path d="M136.65 28.8099C136.128 28.8532 135.604 28.7796 135.114 28.5945C134.625 28.4094 134.182 28.1174 133.82 27.7399C133.205 27.0192 132.877 26.097 132.9 25.1499V17.1499H130.9V14.1499H132.9V10.4099H136.56V14.1299H139.87V17.1299H136.56V24.4299C136.541 24.6028 136.561 24.7778 136.618 24.9422C136.675 25.1065 136.768 25.2561 136.89 25.3799C137.107 25.5578 137.379 25.6535 137.66 25.6499C138.35 25.6659 139.025 25.4434 139.57 25.0199L140.57 27.6699C140.051 28.0442 139.473 28.3282 138.86 28.5099C138.143 28.7228 137.398 28.824 136.65 28.8099V28.8099Z" fill="#5B1D1D"/>
<path d="M148.3 28.81C147.395 28.8176 146.495 28.6688 145.64 28.37C144.806 28.0865 144.047 27.6182 143.42 27C142.754 26.3357 142.236 25.5383 141.9 24.66C141.496 23.5973 141.303 22.4664 141.33 21.33C141.314 20.2346 141.49 19.1449 141.85 18.11C142.166 17.2398 142.652 16.441 143.28 15.76C143.876 15.1301 144.599 14.6327 145.4 14.3C146.213 13.9576 147.088 13.784 147.97 13.79C149.407 13.7119 150.818 14.1919 151.91 15.13C152.892 15.947 153.592 17.0527 153.91 18.29C154.215 19.3666 154.367 20.481 154.36 21.6V22.25H145.07C145.059 22.7422 145.155 23.231 145.35 23.683C145.545 24.1351 145.835 24.5399 146.2 24.87C146.953 25.4357 147.879 25.722 148.82 25.68C149.675 25.6982 150.525 25.5452 151.32 25.23C151.85 25.0376 152.343 24.757 152.78 24.4L153.78 27.4C153.4 27.6915 152.979 27.9241 152.53 28.09C151.96 28.3004 151.371 28.4512 150.77 28.54C150.337 28.6351 149.9 28.7086 149.46 28.76C149.075 28.8006 148.687 28.8173 148.3 28.81ZM145.15 19.58H150.6C150.586 19.0759 150.452 18.5824 150.21 18.14C150.019 17.801 149.76 17.5048 149.45 17.27C149.194 17.0779 148.906 16.9324 148.6 16.84C148.396 16.7735 148.184 16.7332 147.97 16.72C147.299 16.7338 146.657 16.9895 146.16 17.44C145.855 17.7096 145.609 18.0383 145.435 18.4062C145.261 18.7741 145.164 19.1734 145.15 19.58V19.58Z" fill="#5B1D1D"/>
<path d="M52.3398 38.57V33.35H53.9998C54.2429 33.3337 54.4868 33.3337 54.7298 33.35C54.9526 33.3814 55.1688 33.449 55.3698 33.55C55.6234 33.662 55.829 33.8605 55.9498 34.11C56.0781 34.3569 56.1433 34.6317 56.1398 34.91C56.1509 35.1075 56.1202 35.3051 56.0498 35.49C55.9886 35.6606 55.9045 35.8221 55.7998 35.97C55.7148 36.0959 55.6102 36.2073 55.4898 36.3C55.4134 36.3659 55.3252 36.4168 55.2298 36.45C55.0486 36.5185 54.861 36.5687 54.6698 36.6C54.4835 36.6152 54.2962 36.6152 54.1098 36.6H53.3998V38.48L52.3398 38.57ZM53.3398 35.79H53.9998C54.133 35.8005 54.2667 35.8005 54.3998 35.79C54.5108 35.778 54.6189 35.7476 54.7198 35.7C54.845 35.6353 54.944 35.5293 54.9998 35.4C55.0682 35.2796 55.1042 35.1435 55.1042 35.005C55.1042 34.8665 55.0682 34.7304 54.9998 34.61C54.9239 34.4849 54.8075 34.3896 54.6698 34.34C54.459 34.2772 54.2398 34.2469 54.0198 34.25H53.3998L53.3398 35.79Z" fill="#7C7C7C"/>
<path d="M57.7499 38.6599C57.5835 38.6586 57.4182 38.6316 57.2599 38.5799C57.1097 38.5258 56.9707 38.4444 56.8499 38.3399C56.7268 38.2399 56.6277 38.1134 56.5599 37.9699C56.486 37.8102 56.4484 37.636 56.4499 37.4599C56.4346 37.2738 56.4802 37.0878 56.5799 36.9299C56.6706 36.7811 56.7937 36.6547 56.9399 36.5599C57.0811 36.4585 57.236 36.3777 57.3999 36.3199C57.5462 36.2717 57.697 36.2382 57.8499 36.2199H58.1199L58.6699 36.1499C58.6775 36.0669 58.6662 35.9833 58.6367 35.9054C58.6073 35.8274 58.5605 35.7572 58.4999 35.6999C58.3666 35.604 58.2038 35.5579 58.0399 35.5699C57.8469 35.5703 57.6562 35.6112 57.4799 35.6899C57.3323 35.7496 57.1942 35.8305 57.0699 35.9299L56.7399 35.2499C56.9242 35.0988 57.1392 34.9896 57.3699 34.9299C57.5168 34.8814 57.6673 34.8447 57.8199 34.8199C57.9496 34.8061 58.0803 34.8061 58.2099 34.8199C58.4351 34.8122 58.6595 34.8496 58.8699 34.9299C59.0456 35.0011 59.2054 35.1065 59.3399 35.2399C59.4603 35.3771 59.5521 35.5368 59.6099 35.7099C59.6721 35.8898 59.6993 36.0799 59.6899 36.2699V38.6899H58.7599V38.4099C58.6418 38.5301 58.4983 38.6224 58.3399 38.6799C58.144 38.7147 57.943 38.7079 57.7499 38.6599V38.6599ZM57.9799 37.8499C58.1106 37.8484 58.2397 37.8212 58.3599 37.7699C58.4783 37.7242 58.5869 37.6563 58.6799 37.5699V36.7999L58.2699 36.8499H58.0199C57.8465 36.8704 57.6847 36.9478 57.5599 37.0699C57.4829 37.1627 57.4405 37.2793 57.4399 37.3999C57.4376 37.4575 57.449 37.5148 57.4734 37.567C57.4978 37.6192 57.5343 37.6648 57.5799 37.6999C57.6965 37.8003 57.8462 37.8538 57.9999 37.8499H57.9799Z" fill="#7C7C7C"/>
<path d="M60.29 40.0699L60.2 39.1999C60.4668 39.2056 60.733 39.1719 60.99 39.0999C61.1978 39.0436 61.3851 38.9291 61.53 38.7699L61.59 38.6799C61.5867 38.65 61.5867 38.6198 61.59 38.5899L60 34.7999H61.08L62.18 37.6999L62.44 37.0199C62.52 36.7999 62.59 36.5799 62.65 36.3599C62.76 35.9799 62.85 35.6599 62.92 35.3599C62.99 35.0599 63.04 34.8999 63.07 34.7699H64.07C63.8917 35.4735 63.6781 36.1677 63.43 36.8499C63.2361 37.3966 63.009 37.9309 62.75 38.4499C62.5796 38.7726 62.3822 39.0804 62.16 39.3699C61.9555 39.5988 61.6929 39.7682 61.4 39.8599C61.0434 39.988 60.6688 40.0589 60.29 40.0699V40.0699Z" fill="#7C7C7C"/>
<path d="M64.6099 38.5699V34.7999H65.5299V35.0799C65.6667 34.9696 65.8182 34.8788 65.9799 34.8099C66.1477 34.7391 66.3277 34.7017 66.5099 34.6999C66.7001 34.7004 66.889 34.7308 67.0699 34.7899C67.2573 34.8473 67.4308 34.9426 67.5799 35.0699C67.7672 34.9635 67.9649 34.8763 68.1699 34.8099C68.3928 34.7377 68.6256 34.7006 68.8599 34.6999C69.2166 34.6792 69.5696 34.7816 69.8599 34.9899C70.0808 35.1501 70.2369 35.3843 70.2999 35.6499C70.3566 35.8654 70.3868 36.087 70.3899 36.3099V38.5699H69.3899V36.3599C69.4002 36.1463 69.3481 35.9343 69.2399 35.7499C69.1755 35.6677 69.0912 35.6034 68.9949 35.5631C68.8986 35.5229 68.7936 35.508 68.6899 35.5199C68.5443 35.5222 68.4009 35.5564 68.2699 35.6199C68.145 35.6775 68.0247 35.7443 67.9099 35.8199C67.9261 35.9761 67.9261 36.1336 67.9099 36.2899V38.5699H66.9999V36.3599C67.0152 36.1368 66.9554 35.915 66.8299 35.7299C66.7756 35.6606 66.7055 35.6054 66.6254 35.5689C66.5454 35.5323 66.4577 35.5155 66.3699 35.5199C66.2182 35.5194 66.0693 35.5609 65.9399 35.6399C65.8129 35.7077 65.6952 35.7917 65.5899 35.8899V38.5699H64.6099Z" fill="#7C7C7C"/>
<path d="M73.09 38.6599C72.8417 38.6606 72.595 38.6201 72.36 38.5399C72.1348 38.4617 71.9274 38.3393 71.75 38.1799C71.572 38.0038 71.4323 37.7927 71.34 37.5599C71.2249 37.2847 71.1704 36.988 71.18 36.6899C71.1768 36.4006 71.2242 36.1129 71.32 35.8399C71.4114 35.609 71.5473 35.3983 71.72 35.2199C71.8837 35.0529 72.0816 34.9232 72.3 34.8399C72.5219 34.7475 72.7598 34.6999 73 34.6999C73.392 34.6834 73.7764 34.8116 74.08 35.0599C74.3486 35.2696 74.5416 35.5609 74.63 35.8899C74.7162 36.1716 74.7567 36.4653 74.75 36.7599V36.9299H72.2C72.1985 37.0605 72.2255 37.1899 72.279 37.309C72.3326 37.4282 72.4114 37.5343 72.51 37.6199C72.7208 37.7663 72.9736 37.8401 73.2301 37.8299C73.4656 37.8342 73.6998 37.7935 73.92 37.7099C74.0647 37.6593 74.1999 37.5849 74.32 37.4899L74.59 38.2799C74.4856 38.3612 74.3669 38.4223 74.24 38.4599C74.0875 38.5253 73.9254 38.5659 73.76 38.5799L73.4 38.6399L73.09 38.6599ZM72.2301 36.2299H73.72C73.7169 36.0972 73.6826 35.967 73.62 35.8499C73.566 35.7628 73.4945 35.6879 73.4101 35.6299C73.3388 35.5744 73.2572 35.5336 73.17 35.5099H73C72.8162 35.5123 72.6391 35.5796 72.5 35.6999C72.4221 35.7659 72.3582 35.8468 72.3118 35.9378C72.2655 36.0288 72.2377 36.1281 72.2301 36.2299Z" fill="#7C7C7C"/>
<path d="M75.5 38.57V34.8H76.42V35.1C76.5792 34.9688 76.7627 34.8702 76.96 34.81C77.1523 34.7396 77.3552 34.7024 77.56 34.7C77.8445 34.6917 78.1254 34.7646 78.37 34.91C78.5956 35.0448 78.7631 35.2586 78.84 35.51C78.9293 35.7775 78.9732 36.058 78.97 36.34V38.57H78V36.42C78.019 36.1811 77.9516 35.9433 77.81 35.75C77.7454 35.6734 77.6639 35.6127 77.572 35.5728C77.48 35.5329 77.3801 35.5149 77.28 35.52C77.1252 35.5196 76.9732 35.5611 76.84 35.64C76.7136 35.7127 76.5961 35.8 76.49 35.9V38.57H75.5Z" fill="#7C7C7C"/>
<path d="M81.11 38.6599C80.9756 38.6722 80.8402 38.6548 80.7133 38.6089C80.5864 38.563 80.4711 38.4897 80.3757 38.3943C80.2802 38.2989 80.207 38.1836 80.1611 38.0567C80.1152 37.9298 80.0977 37.7943 80.11 37.6599V35.5799H79.55V34.7999H80.11V33.7999H81.11V34.7999H82V35.5799H81.09V37.4999C81.0848 37.5457 81.0902 37.5921 81.1059 37.6354C81.1215 37.6788 81.1469 37.718 81.18 37.7499C81.239 37.7983 81.3138 37.8232 81.39 37.8199C81.5795 37.8265 81.7658 37.7702 81.92 37.6599L82.18 38.3599C82.0349 38.4532 81.8764 38.524 81.71 38.5699C81.5158 38.6303 81.3135 38.6606 81.11 38.6599Z" fill="#7C7C7C"/>
<path d="M85.3999 38.57V34.3H83.8599V33.35H87.9999V34.3H86.4499V38.57H85.3999Z" fill="#7C7C7C"/>
<path d="M89.6999 38.66C89.4483 38.6607 89.1983 38.6202 88.9599 38.54C88.7366 38.464 88.532 38.3413 88.3599 38.18C88.1755 38.0071 88.0321 37.7953 87.9399 37.56C87.7329 37.0053 87.7329 36.3946 87.9399 35.84C88.0239 35.6077 88.1569 35.3963 88.3299 35.22C88.4935 35.053 88.6914 34.9233 88.9099 34.84C89.1349 34.7465 89.3763 34.6989 89.6199 34.7C90.009 34.6822 90.3907 34.8106 90.6899 35.06C90.9618 35.2665 91.1557 35.5591 91.2399 35.89C91.3261 36.1717 91.3666 36.4654 91.3599 36.76V36.93H88.7999C88.8003 37.0613 88.8291 37.1909 88.8843 37.31C88.9396 37.4291 89.0199 37.5349 89.1199 37.62C89.3263 37.7677 89.5764 37.8417 89.8299 37.83C90.0655 37.8353 90.2999 37.7945 90.5199 37.71C90.6656 37.6618 90.8012 37.5873 90.9199 37.49L91.1899 38.28C91.0893 38.3614 90.9738 38.4226 90.8499 38.46C90.6964 38.5225 90.5348 38.5629 90.3699 38.58L90.0099 38.64L89.6999 38.66ZM88.8299 36.23H90.3199C90.3167 36.0973 90.2824 35.9671 90.2199 35.85C90.1659 35.7629 90.0944 35.688 90.0099 35.63C89.941 35.5766 89.8631 35.5359 89.7799 35.51H89.6099C89.4255 35.5097 89.2475 35.5774 89.1099 35.7C89.0306 35.7655 88.965 35.8461 88.9169 35.937C88.8689 36.028 88.8393 36.1275 88.8299 36.23V36.23Z" fill="#7C7C7C"/>
<path d="M93.71 38.6599C93.4747 38.6608 93.2411 38.6202 93.02 38.5399C92.8009 38.4614 92.6001 38.3389 92.43 38.1799C92.2564 38.006 92.1203 37.7984 92.03 37.5699C91.9233 37.2926 91.8723 36.997 91.88 36.6999C91.8688 36.2845 91.9689 35.8736 92.17 35.5099C92.3374 35.223 92.5936 34.9984 92.9 34.8699C93.1472 34.7653 93.4117 34.7077 93.68 34.6999C93.8983 34.6964 94.1154 34.7337 94.32 34.8099C94.4819 34.8652 94.6339 34.9462 94.77 35.0499C94.884 35.131 94.9852 35.2287 95.07 35.3399L95.23 35.5899L94.48 36.0799C94.3934 35.9405 94.2892 35.8128 94.17 35.6999C94.1064 35.639 94.031 35.5916 93.9485 35.5606C93.866 35.5297 93.778 35.5158 93.69 35.5199C93.5799 35.5199 93.4713 35.5452 93.3725 35.5937C93.2736 35.6422 93.1873 35.7128 93.12 35.7999C92.9394 36.0485 92.8542 36.3538 92.88 36.6599C92.8552 36.9676 92.9442 37.2736 93.13 37.5199C93.2168 37.6217 93.3263 37.7019 93.4495 37.7539C93.5728 37.806 93.7065 37.8286 93.84 37.8199C94.0662 37.8303 94.2919 37.7893 94.5 37.6999C94.6416 37.6418 94.7706 37.5569 94.88 37.4499L95.18 38.2499C94.9945 38.374 94.7925 38.4716 94.58 38.5399C94.2975 38.6224 94.0043 38.6628 93.71 38.6599Z" fill="#7C7C7C"/>
<path d="M95.8699 38.57V33.35H96.8699V35.05C97.0036 34.9483 97.152 34.8674 97.3099 34.81C97.5294 34.7245 97.7647 34.687 97.9999 34.7C98.3281 34.6852 98.6507 34.7881 98.9099 34.99C99.1187 35.1687 99.2628 35.4112 99.3199 35.68C99.3682 35.8934 99.395 36.1112 99.3999 36.33V38.57H98.3999V36.4C98.4189 36.1611 98.3514 35.9233 98.2099 35.73C98.1557 35.6656 98.0885 35.6136 98.0126 35.5774C97.9367 35.5412 97.8539 35.5216 97.7699 35.52C97.6127 35.5158 97.4574 35.5538 97.3199 35.63C97.181 35.7025 97.0502 35.7897 96.9299 35.89V38.57H95.8699Z" fill="#7C7C7C"/>
<path d="M100.3 38.5699V34.7999H101.22V35.0999C101.376 34.9687 101.556 34.8701 101.75 34.8099C101.942 34.7396 102.145 34.7024 102.35 34.6999C102.635 34.6905 102.916 34.7634 103.16 34.9099C103.386 35.0447 103.553 35.2585 103.63 35.5099C103.723 35.7769 103.77 36.0574 103.77 36.3399V38.5699H102.77V36.4199C102.785 36.1829 102.721 35.9477 102.59 35.7499C102.525 35.6739 102.443 35.6137 102.352 35.5738C102.26 35.534 102.16 35.5155 102.06 35.5199C101.905 35.518 101.753 35.5596 101.62 35.6399C101.492 35.7101 101.374 35.7976 101.27 35.8999V38.5699H100.3Z" fill="#7C7C7C"/>
<path d="M106.43 38.66C106.144 38.6632 105.861 38.6052 105.6 38.49C105.367 38.3718 105.162 38.2047 105 38C104.846 37.8129 104.728 37.5994 104.65 37.37C104.552 37.0775 104.513 36.7683 104.537 36.4607C104.561 36.1531 104.647 35.8535 104.79 35.58C104.95 35.2791 105.203 35.0374 105.51 34.89C105.793 34.7491 106.104 34.6739 106.42 34.67C106.822 34.6582 107.216 34.7815 107.54 35.02C107.823 35.2151 108.037 35.4953 108.15 35.82C108.247 36.0829 108.301 36.3598 108.31 36.64C108.312 37.0137 108.219 37.3819 108.04 37.71C107.954 37.8815 107.835 38.0344 107.69 38.16C107.562 38.2733 107.421 38.3706 107.27 38.45C107.128 38.5191 106.976 38.5663 106.82 38.59C106.693 38.6265 106.562 38.65 106.43 38.66V38.66ZM106.43 37.82C106.586 37.8353 106.743 37.7926 106.87 37.7C106.984 37.6133 107.079 37.5044 107.15 37.38C107.219 37.2589 107.266 37.127 107.29 36.99C107.307 36.884 107.307 36.7759 107.29 36.67C107.296 36.4848 107.262 36.3005 107.19 36.13C107.139 35.9956 107.06 35.8731 106.96 35.77C106.877 35.6811 106.774 35.6126 106.66 35.57C106.574 35.5527 106.486 35.5527 106.4 35.57C106.294 35.5683 106.19 35.5877 106.092 35.6272C105.994 35.6668 105.905 35.7255 105.83 35.8C105.764 35.8726 105.706 35.9532 105.66 36.04L105.56 36.29C105.556 36.3666 105.556 36.4433 105.56 36.52V36.71C105.539 36.8592 105.539 37.0107 105.56 37.16C105.598 37.2909 105.656 37.4156 105.73 37.53C105.804 37.6304 105.899 37.7125 106.01 37.77C106.143 37.8245 106.288 37.8418 106.43 37.82V37.82Z" fill="#7C7C7C"/>
<path d="M110.1 38.66C109.915 38.6713 109.731 38.6405 109.56 38.57C109.435 38.5081 109.326 38.4193 109.24 38.31C109.162 38.2148 109.111 38.1011 109.09 37.98C109.081 37.8735 109.081 37.7665 109.09 37.66V33.35H110.09V37.47C110.079 37.5701 110.108 37.6705 110.17 37.75C110.239 37.8012 110.324 37.8261 110.41 37.82C110.524 37.821 110.636 37.7971 110.74 37.75L110.92 38.49C110.827 38.5345 110.73 38.568 110.63 38.59C110.458 38.6397 110.279 38.6633 110.1 38.66Z" fill="#7C7C7C"/>
<path d="M113.07 38.66C112.784 38.6632 112.501 38.6053 112.24 38.49C112.013 38.3794 111.812 38.2227 111.65 38.03C111.493 37.8448 111.374 37.6308 111.3 37.4C111.201 37.1076 111.163 36.7983 111.187 36.4907C111.211 36.1831 111.297 35.8835 111.44 35.61C111.599 35.3115 111.847 35.0703 112.15 34.92C112.436 34.7789 112.751 34.7038 113.07 34.7C113.472 34.6883 113.866 34.8115 114.19 35.05C114.47 35.2481 114.683 35.5273 114.8 35.85C114.897 36.1129 114.951 36.3898 114.96 36.67C114.962 37.0437 114.869 37.4119 114.69 37.74C114.604 37.9115 114.485 38.0644 114.34 38.19C114.21 38.3057 114.066 38.4033 113.91 38.48C113.772 38.5505 113.623 38.5978 113.47 38.62C113.338 38.6467 113.204 38.6601 113.07 38.66V38.66ZM113.07 37.82C113.226 37.8344 113.383 37.7918 113.51 37.7C113.624 37.6133 113.719 37.5045 113.79 37.38C113.858 37.2589 113.906 37.127 113.93 36.99C113.947 36.884 113.947 36.776 113.93 36.67C113.932 36.4852 113.898 36.3019 113.83 36.13C113.775 35.995 113.693 35.8726 113.59 35.77C113.51 35.6815 113.411 35.613 113.3 35.57C113.214 35.5527 113.126 35.5527 113.04 35.57C112.934 35.5677 112.829 35.5869 112.731 35.6265C112.633 35.666 112.544 35.725 112.47 35.8C112.403 35.8726 112.346 35.9532 112.3 36.04L112.2 36.29C112.196 36.3666 112.196 36.4434 112.2 36.52C112.2 36.6 112.2 36.66 112.2 36.71C112.199 36.862 112.219 37.0135 112.26 37.16C112.294 37.2925 112.351 37.4178 112.43 37.53C112.5 37.63 112.592 37.7122 112.7 37.77C112.818 37.8145 112.944 37.8316 113.07 37.82V37.82Z" fill="#7C7C7C"/>
<path d="M117.22 40.13C117.053 40.1402 116.886 40.1402 116.72 40.13L116.25 40.05L115.88 39.95L115.68 39.87L115.89 39.02C116.062 39.1057 116.243 39.1728 116.43 39.22C116.66 39.2896 116.9 39.3233 117.14 39.32C117.365 39.3354 117.589 39.2794 117.78 39.16C117.847 39.1147 117.901 39.0535 117.937 38.9818C117.974 38.9102 117.992 38.8305 117.99 38.75V38.5C117.807 38.5473 117.619 38.5708 117.43 38.57C117.143 38.5761 116.857 38.5251 116.59 38.42C116.365 38.3246 116.164 38.1812 116 38C115.835 37.821 115.709 37.6099 115.63 37.38C115.522 37.0817 115.48 36.7634 115.508 36.4473C115.535 36.1312 115.632 35.825 115.79 35.55C115.977 35.2523 116.254 35.0213 116.58 34.89C116.898 34.7625 117.237 34.6947 117.58 34.69C117.846 34.6741 118.114 34.6741 118.38 34.69C118.64 34.69 118.84 34.69 118.99 34.77V38.42C119.007 38.6461 118.974 38.8731 118.895 39.0854C118.815 39.2977 118.691 39.4903 118.53 39.65C118.169 39.9695 117.702 40.1409 117.22 40.13ZM117.58 37.74C117.659 37.7577 117.741 37.7577 117.82 37.74L117.99 37.67V35.55H117.79H117.6C117.328 35.5374 117.059 35.6186 116.84 35.78C116.759 35.8497 116.688 35.9305 116.63 36.02C116.585 36.096 116.548 36.1764 116.52 36.26C116.51 36.3364 116.51 36.4136 116.52 36.49C116.515 36.5499 116.515 36.6101 116.52 36.67C116.506 36.9581 116.602 37.2408 116.79 37.46C116.894 37.561 117.018 37.6384 117.154 37.6868C117.291 37.7351 117.436 37.7533 117.58 37.74V37.74Z" fill="#7C7C7C"/>
<path d="M119.8 40.07L119.71 39.2C119.977 39.2045 120.243 39.1708 120.5 39.1C120.706 39.0463 120.891 38.9312 121.03 38.77L121.09 38.68C121.087 38.6501 121.087 38.6199 121.09 38.59L119.48 34.8H120.56L121.66 37.7L122 37C122.08 36.78 122.15 36.56 122.21 36.34C122.32 35.96 122.41 35.64 122.48 35.34C122.55 35.04 122.6 34.88 122.64 34.75H123.64C123.462 35.4536 123.248 36.1478 123 36.83C122.81 37.3783 122.583 37.9129 122.32 38.43C122.153 38.7549 121.956 39.0629 121.73 39.35C121.526 39.5789 121.263 39.7483 120.97 39.84C120.596 39.9817 120.2 40.0595 119.8 40.07V40.07Z" fill="#7C7C7C"/>
<defs>
<linearGradient id="paint0_linear_298_3490" x1="41.0601" y1="39.49" x2="30.3101" y2="19.27" gradientUnits="userSpaceOnUse">
<stop stop-color="#942314"/>
<stop offset="0.12" stop-color="#A71E14"/>
<stop offset="0.33" stop-color="#C11613"/>
<stop offset="0.54" stop-color="#D41113"/>
<stop offset="0.76" stop-color="#DF0E13"/>
<stop offset="1" stop-color="#E30D13"/>
</linearGradient>
<linearGradient id="paint1_linear_298_3490" x1="249.403" y1="462.521" x2="469.385" y2="348.63" gradientUnits="userSpaceOnUse">
<stop stop-color="#942314"/>
<stop offset="0.12" stop-color="#A71E14"/>
<stop offset="0.33" stop-color="#C11613"/>
<stop offset="0.54" stop-color="#D41113"/>
<stop offset="0.76" stop-color="#DF0E13"/>
<stop offset="1" stop-color="#E30D13"/>
</linearGradient>
<linearGradient id="paint2_linear_298_3490" x1="246.263" y1="544.946" x2="421.622" y2="473.934" gradientUnits="userSpaceOnUse">
<stop stop-color="#942314"/>
<stop offset="0.12" stop-color="#A71E14"/>
<stop offset="0.33" stop-color="#C11613"/>
<stop offset="0.54" stop-color="#D41113"/>
<stop offset="0.76" stop-color="#DF0E13"/>
<stop offset="1" stop-color="#E30D13"/>
</linearGradient>
<linearGradient id="paint3_linear_298_3490" x1="384.893" y1="451.937" x2="487.644" y2="343.838" gradientUnits="userSpaceOnUse">
<stop stop-color="#942314"/>
<stop offset="0.12" stop-color="#A71E14"/>
<stop offset="0.33" stop-color="#C11613"/>
<stop offset="0.54" stop-color="#D41113"/>
<stop offset="0.76" stop-color="#DF0E13"/>
<stop offset="1" stop-color="#E30D13"/>
</linearGradient>
<linearGradient id="paint4_linear_298_3490" x1="745.629" y1="1101.57" x2="421.118" y2="1052.19" gradientUnits="userSpaceOnUse">
<stop stop-color="#942314"/>
<stop offset="0.12" stop-color="#A71E14"/>
<stop offset="0.33" stop-color="#C11613"/>
<stop offset="0.54" stop-color="#D41113"/>
<stop offset="0.76" stop-color="#DF0E13"/>
<stop offset="1" stop-color="#E30D13"/>
</linearGradient>
<linearGradient id="paint5_linear_298_3490" x1="33.28" y1="1.48989" x2="37.9" y2="25.0499" gradientUnits="userSpaceOnUse">
<stop stop-color="#942314"/>
<stop offset="0.06" stop-color="#A71E14"/>
<stop offset="0.16" stop-color="#C11613"/>
<stop offset="0.26" stop-color="#D41113"/>
<stop offset="0.37" stop-color="#DF0E13"/>
<stop offset="0.48" stop-color="#E30D13"/>
<stop offset="1" stop-color="#942314"/>
</linearGradient>
<linearGradient id="paint6_linear_298_3490" x1="305.503" y1="511.603" x2="452.42" y2="319.201" gradientUnits="userSpaceOnUse">
<stop stop-color="#942314"/>
<stop offset="0.12" stop-color="#A71E14"/>
<stop offset="0.33" stop-color="#C11613"/>
<stop offset="0.54" stop-color="#D41113"/>
<stop offset="0.76" stop-color="#DF0E13"/>
<stop offset="1" stop-color="#E30D13"/>
</linearGradient>
</defs>
</svg>
